<?xml version="1.0" encoding="utf-8"?>
<!-- Generator: Adobe Illustrator 21.0.0, SVG Export Plug-In . SVG Version: 6.00 Build 0)  -->
<svg version="1.1" id="Layer_1" xmlns="http://www.w3.org/2000/svg" xmlns:xlink="http://www.w3.org/1999/xlink" x="0px" y="0px"
	 viewBox="0 0 25.2 25.2" style="enable-background:new 0 0 25.2 25.2;" xml:space="preserve">
<g>
	<path d="M14.5,0.8v1.9h-1.9v1.9h1.9v1.9h-1.9v1.9h1.9v2.2h-1.9v1.5c0.9,0.7,1.6,1.5,2.2,2.4c0.6,0.9,0.8,2,0.8,3.1
		c0,1.3-0.3,2.4-0.9,3.4c-0.6,1-1.5,1.9-2.5,2.5c-1,0.6-2.2,0.9-3.4,0.9s-2.4-0.3-3.4-0.9C4.2,23,3.3,22,2.8,21s-0.9-2.2-0.9-3.4
		c0-1.1,0.2-2.2,0.8-3.1c0.6-0.9,1.3-1.7,2.2-2.4V0.8H14.5z M6.6,13.1l-0.5,0.2c-0.8,0.5-1.4,1-1.8,1.8s-0.7,1.6-0.7,2.5
		c0,0.9,0.2,1.7,0.7,2.5c0.5,0.8,1,1.4,1.8,1.8s1.6,0.7,2.5,0.7s1.7-0.2,2.5-0.7c0.8-0.5,1.4-1,1.8-1.8c0.5-0.8,0.7-1.6,0.7-2.5
		c0-0.9-0.2-1.7-0.7-2.5s-1-1.4-1.8-1.8l-0.6-0.2V2.8h-4V13.1z M9.6,12.6v2.2c0.6,0.2,1,0.6,1.4,1c0.3,0.5,0.6,1,0.6,1.7
		c0,0.8-0.3,1.5-0.9,2c-0.6,0.6-1.3,0.9-2,0.9c-0.8,0-1.5-0.3-2-0.9c-0.6-0.6-0.9-1.3-0.9-2c0-0.7,0.2-1.3,0.6-1.7
		c0.3-0.5,0.8-0.9,1.4-1v-2.2H9.6z M21.6,1.2c0.6,0.3,0.9,0.7,1.3,1.3c0.3,0.6,0.5,1.1,0.5,1.7s-0.1,1.1-0.5,1.7
		c-0.3,0.6-0.7,0.9-1.3,1.3c-0.6,0.3-1.1,0.5-1.7,0.5c-0.6,0-1.1-0.1-1.7-0.5c-0.6-0.3-0.9-0.7-1.3-1.3s-0.5-1.1-0.5-1.7
		S16.6,3,17,2.5c0.3-0.6,0.7-0.9,1.3-1.3s1.1-0.5,1.7-0.5C20.5,0.8,21.2,0.9,21.6,1.2z M18.9,3.2c-0.3,0.3-0.5,0.7-0.5,1
		c0,0.5,0.1,0.8,0.5,1c0.3,0.3,0.7,0.5,1,0.5c0.5,0,0.8-0.1,1-0.5c0.3-0.3,0.5-0.7,0.5-1c0-0.5-0.1-0.8-0.5-1
		c-0.3-0.3-0.7-0.5-1-0.5C19.5,2.7,19.1,2.9,18.9,3.2z"/>
</g>
</svg>
