<?xml version="1.0" encoding="utf-8"?>
<!-- Generator: Adobe Illustrator 21.0.0, SVG Export Plug-In . SVG Version: 6.00 Build 0)  -->
<svg version="1.1" id="Layer_1" xmlns="http://www.w3.org/2000/svg" xmlns:xlink="http://www.w3.org/1999/xlink" x="0px" y="0px"
	 viewBox="0 0 54 50" style="enable-background:new 0 0 54 50;" xml:space="preserve">
<style type="text/css">
	.st0{opacity:0.73;fill:url(#SVGID_1_);enable-background:new    ;}
	.st1{fill:#00B0FF;}
	.st2{fill:#FFFFFF;}
</style>
<radialGradient id="SVGID_1_" cx="39.4948" cy="311.3835" r="11.022" fx="31.5279" fy="311.1984" gradientTransform="matrix(1.1954 -0.1715 9.336998e-02 0.6508 -44.4303 -153.686)" gradientUnits="userSpaceOnUse">
	<stop  offset="9.999999e-08" style="stop-color:#4D4D4D"/>
	<stop  offset="1" style="stop-color:#FFFFFF;stop-opacity:0"/>
</radialGradient>
<path class="st0" d="M49.7,39.6c0.6,4-6.9,8.4-16.8,9.8C23,50.8,14.6,48.7,14,44.7s6.9-8.4,16.8-9.8S49.1,35.6,49.7,39.6z"/>
<path class="st1" d="M22.8,0.1h-0.2C12.4,0.1,4.2,8.4,4.2,18.6v0.2c0,9,6.4,16.5,14.9,18.1l3.7,8l3.7-8c8.5-1.7,14.9-9.1,14.9-18.1
	v-0.2C41.3,8.4,33,0.1,22.8,0.1z"/>
<path class="st1" d="M22.7,35.3L22.7,35.3c-9.2,0-16.6-7.4-16.6-16.6l0,0c0-9.2,7.4-16.6,16.6-16.6l0,0c9.2,0,16.6,7.4,16.6,16.6
	l0,0C39.3,27.9,31.9,35.3,22.7,35.3z"/>
<g>
	<path class="st2" d="M27.4,8.3V10h-1.7v1.7h1.7v1.7h-1.7v1.7h1.7V17h-1.7v1.3c0.8,0.6,1.4,1.3,1.9,2.1c0.5,0.8,0.7,1.8,0.7,2.7
		c0,1.1-0.3,2.1-0.8,3c-0.5,0.9-1.3,1.7-2.2,2.2c-0.9,0.5-1.9,0.8-3,0.8c-1.1,0-2.1-0.3-3-0.8c-0.9-0.5-1.7-1.3-2.2-2.2
		c-0.5-0.9-0.8-1.9-0.8-3c0-1,0.2-1.9,0.7-2.7c0.5-0.8,1.1-1.5,1.9-2.1V8.3H27.4z M20.5,19.1l-0.4,0.2c-0.7,0.4-1.2,0.9-1.6,1.6
		c-0.4,0.7-0.6,1.4-0.6,2.2c0,0.8,0.2,1.5,0.6,2.2c0.4,0.7,0.9,1.2,1.6,1.6c0.7,0.4,1.4,0.6,2.2,0.6s1.5-0.2,2.2-0.6
		c0.7-0.4,1.2-0.9,1.6-1.6c0.4-0.7,0.6-1.4,0.6-2.2c0-0.8-0.2-1.5-0.6-2.2c-0.4-0.7-0.9-1.2-1.6-1.6L24,19.1v-9h-3.5V19.1z
		 M23.1,18.7v1.9c0.5,0.2,0.9,0.5,1.2,0.9c0.3,0.4,0.5,0.9,0.5,1.5c0,0.7-0.3,1.3-0.8,1.8c-0.5,0.5-1.1,0.8-1.8,0.8
		s-1.3-0.3-1.8-0.8c-0.5-0.5-0.8-1.1-0.8-1.8c0-0.6,0.2-1.1,0.5-1.5s0.7-0.8,1.2-0.9v-1.9H23.1z M33.7,8.7c0.5,0.3,0.8,0.6,1.1,1.1
		c0.3,0.5,0.4,1,0.4,1.5c0,0.5-0.1,1-0.4,1.5c-0.3,0.5-0.6,0.8-1.1,1.1c-0.5,0.3-1,0.4-1.5,0.4c-0.5,0-1-0.1-1.5-0.4
		s-0.8-0.6-1.1-1.1c-0.3-0.5-0.4-1-0.4-1.5c0-0.5,0.1-1,0.4-1.5c0.3-0.5,0.6-0.8,1.1-1.1s1-0.4,1.5-0.4C32.7,8.3,33.3,8.4,33.7,8.7z
		 M31.3,10.4c-0.3,0.3-0.4,0.6-0.4,0.9c0,0.4,0.1,0.7,0.4,0.9c0.3,0.3,0.6,0.4,0.9,0.4c0.4,0,0.7-0.1,0.9-0.4
		c0.3-0.3,0.4-0.6,0.4-0.9c0-0.4-0.1-0.7-0.4-0.9c-0.3-0.3-0.6-0.4-0.9-0.4C31.8,10,31.5,10.2,31.3,10.4z"/>
</g>
</svg>
