<?xml version="1.0" encoding="utf-8"?>
<!-- Generator: Adobe Illustrator 21.0.0, SVG Export Plug-In . SVG Version: 6.00 Build 0)  -->
<svg version="1.1" id="Layer_1" xmlns="http://www.w3.org/2000/svg" xmlns:xlink="http://www.w3.org/1999/xlink" x="0px" y="0px"
	 viewBox="0 0 54 50" style="enable-background:new 0 0 54 50;" xml:space="preserve">
<style type="text/css">
	.st0{opacity:0.73;fill:url(#SVGID_1_);enable-background:new    ;}
	.st1{fill:#00C853;}
	.st2{fill:#FFFFFF;}
</style>
<radialGradient id="SVGID_1_" cx="39.4948" cy="311.3835" r="11.022" fx="31.5279" fy="311.1984" gradientTransform="matrix(1.1954 -0.1715 9.336998e-02 0.6508 -44.4303 -153.686)" gradientUnits="userSpaceOnUse">
	<stop  offset="9.999999e-08" style="stop-color:#4D4D4D"/>
	<stop  offset="1" style="stop-color:#FFFFFF;stop-opacity:0"/>
</radialGradient>
<path class="st0" d="M49.7,39.6c0.6,4-6.9,8.4-16.8,9.8C23,50.8,14.6,48.7,14,44.7s6.9-8.4,16.8-9.8S49.1,35.6,49.7,39.6z"/>
<path class="st1" d="M22.8,0.1h-0.2C12.4,0.1,4.2,8.4,4.2,18.6v0.2c0,9,6.4,16.5,14.9,18.1l3.7,8l3.7-8c8.5-1.7,14.9-9.1,14.9-18.1
	v-0.2C41.3,8.4,33,0.1,22.8,0.1z"/>
<path class="st1" d="M22.7,35.3L22.7,35.3c-9.2,0-16.6-7.4-16.6-16.6l0,0c0-9.2,7.4-16.6,16.6-16.6l0,0c9.2,0,16.6,7.4,16.6,16.6
	l0,0C39.3,27.9,31.9,35.3,22.7,35.3z"/>
<g>
	<path class="st2" d="M18.6,11.3h1.3v6.5h-1.3V11.3z"/>
	<path class="st2" d="M15.9,11.3h1.3v6.5h-1.3V11.3z"/>
	<path class="st2" d="M30.9,8.7c-1.8,0-3.2,1.4-3.2,3.2v3.9c0,0.8,0.5,1.6,1.3,1.8v0.8c0,0.8,0.5,1.6,1.3,1.8v4
		c0,1.1-0.9,1.9-1.9,1.9h-2v-1.3c0-1.1-0.9-1.9-1.9-1.9h-5.2c-1.1,0-1.9,0.9-1.9,1.9v1.3h-0.7c-1.1,0-1.9-0.9-1.9-1.9v-3.9h11.6V8.7
		c-0.4,0-13.8,0-14.2,0v11.6h1.3v3.9c0,1.8,1.4,3.2,3.2,3.2h0.7v1.3c0,1.1,0.9,1.9,1.9,1.9h5.2c1.1,0,1.9-0.9,1.9-1.9v-1.3h2
		c1.8,0,3.2-1.4,3.2-3.2v-4c0.8-0.3,1.3-1,1.3-1.8v-0.8c0.8-0.3,1.3-1,1.3-1.8v-3.9C34.1,10.1,32.6,8.7,30.9,8.7z M25,19.1h-1.9
		c0.4-0.5,0.6-1.2,0.6-1.9v-5.2c0-0.7-0.2-1.4-0.6-1.9H25V19.1z M13.4,10h7.1c1.1,0,1.9,0.9,1.9,1.9v5.2c0,1.1-0.9,1.9-1.9,1.9
		c-0.3,0-6.8,0-7.1,0V10z M18.6,28.8v-3.9c0-0.4,0.3-0.6,0.6-0.6h3.2v1.9h-2.6v1.3h2.6v1.9h-3.2C18.9,29.4,18.6,29.1,18.6,28.8z
		 M25,28.8c0,0.4-0.3,0.6-0.6,0.6h-0.6v-5.2h0.6c0.4,0,0.6,0.3,0.6,0.6V28.8z M30.9,19.1c-0.4,0-0.6-0.3-0.6-0.6v-0.6h1.3v0.6
		C31.5,18.8,31.2,19.1,30.9,19.1z M32.8,15.8c0,0.4-0.3,0.6-0.6,0.6h-2.6c-0.4,0-0.6-0.3-0.6-0.6v-3.9c0-1.1,0.9-1.9,1.9-1.9
		s1.9,0.9,1.9,1.9V15.8z"/>
</g>
</svg>
