<?xml version="1.0" encoding="utf-8"?>
<!-- Generator: Adobe Illustrator 21.0.0, SVG Export Plug-In . SVG Version: 6.00 Build 0)  -->
<svg version="1.1" id="Layer_1" xmlns="http://www.w3.org/2000/svg" xmlns:xlink="http://www.w3.org/1999/xlink" x="0px" y="0px"
	 viewBox="0 0 54 50" style="enable-background:new 0 0 54 50;" xml:space="preserve">
<style type="text/css">
	.st0{opacity:0.73;fill:url(#SVGID_1_);enable-background:new    ;}
	.st1{fill:#F46060;}
	.st2{fill:#FFFFFF;}
</style>
<g>
	
		<radialGradient id="SVGID_1_" cx="32.7284" cy="-276.3265" r="11.022" fx="24.7615" fy="-276.5116" gradientTransform="matrix(1.1954 -0.1715 -9.336998e-02 -0.6508 -33.0354 -131.9982)" gradientUnits="userSpaceOnUse">
		<stop  offset="9.999999e-08" style="stop-color:#4D4D4D"/>
		<stop  offset="1" style="stop-color:#FFFFFF;stop-opacity:0"/>
	</radialGradient>
	<path class="st0" d="M49.7,39.6c0.6,4-6.9,8.4-16.8,9.8C23,50.8,14.6,48.7,14,44.7s6.9-8.4,16.8-9.8S49.1,35.6,49.7,39.6z"/>
	<path class="st1" d="M22.8,0.1h-0.2C12.4,0.1,4.2,8.4,4.2,18.6v0.2c0,9,6.4,16.5,14.9,18.1l3.7,8l3.7-8c8.5-1.7,14.9-9.1,14.9-18.1
		v-0.2C41.3,8.4,33,0.1,22.8,0.1z"/>
	<path class="st1" d="M22.7,35.3L22.7,35.3c-9.2,0-16.6-7.4-16.6-16.6l0,0c0-9.2,7.4-16.6,16.6-16.6l0,0c9.2,0,16.6,7.4,16.6,16.6
		l0,0C39.3,27.9,31.9,35.3,22.7,35.3z"/>
	<g>
		<path class="st2" d="M33.3,12.7L22.7,8.3l-10.6,4.4l-0.5,0.2v14.2h5.1v-1.7v-7.7h12v7.7v1.7h5.1V12.9L33.3,12.7z M32.1,25.5h-1.7
			V16H15v9.4h-1.7V14.1l9.4-3.9l9.4,3.9V25.5z"/>
		<polygon class="st2" points="17.9,22.3 17.9,24 27.5,24 27.5,22.3 		"/>
		<polygon class="st2" points="18,19 18,20.7 27.5,20.7 27.5,19 		"/>
		<polygon class="st2" points="17.9,25.5 17.9,27.2 27.5,27.2 27.5,25.5 		"/>
	</g>
</g>
</svg>
