<?xml version="1.0" encoding="utf-8"?>
<!-- Generator: Adobe Illustrator 21.0.0, SVG Export Plug-In . SVG Version: 6.00 Build 0)  -->
<svg version="1.1" id="Layer_1" xmlns="http://www.w3.org/2000/svg" xmlns:xlink="http://www.w3.org/1999/xlink" x="0px" y="0px"
	 viewBox="0 0 54 50" style="enable-background:new 0 0 54 50;" xml:space="preserve">
<style type="text/css">
	.st0{opacity:0.73;fill:url(#SVGID_1_);enable-background:new    ;}
	.st1{fill:#00C853;}
	.st2{fill:#FFFFFF;}
</style>
<radialGradient id="SVGID_1_" cx="39.4948" cy="311.3835" r="11.022" fx="31.5279" fy="311.1984" gradientTransform="matrix(1.1954 -0.1715 9.336998e-02 0.6508 -44.4303 -153.686)" gradientUnits="userSpaceOnUse">
	<stop  offset="9.999999e-08" style="stop-color:#4D4D4D"/>
	<stop  offset="1" style="stop-color:#FFFFFF;stop-opacity:0"/>
</radialGradient>
<path class="st0" d="M49.7,39.6c0.6,4-6.9,8.4-16.8,9.8C23,50.8,14.6,48.7,14,44.7s6.9-8.4,16.8-9.8S49.1,35.6,49.7,39.6z"/>
<path class="st1" d="M22.8,0.1h-0.2C12.4,0.1,4.2,8.4,4.2,18.6v0.2c0,9,6.4,16.5,14.9,18.1l3.7,8l3.7-8c8.5-1.7,14.9-9.1,14.9-18.1
	v-0.2C41.3,8.4,33,0.1,22.8,0.1z"/>
<path class="st1" d="M22.7,35.3L22.7,35.3c-9.2,0-16.6-7.4-16.6-16.6l0,0c0-9.2,7.4-16.6,16.6-16.6l0,0c9.2,0,16.6,7.4,16.6,16.6
	l0,0C39.3,27.9,31.9,35.3,22.7,35.3z"/>
<g>
	<path class="st2" d="M33.4,11.1c0-0.4-0.3-0.7-0.7-0.7h-1.4c-0.4,0-0.7,0.3-0.7,0.7s0.3,0.7,0.7,0.7h1.4
		C33.1,11.8,33.4,11.5,33.4,11.1z"/>
	<path class="st2" d="M31,9.7l1-1c0.3-0.3,0.3-0.7,0-1c-0.3-0.3-0.7-0.3-1,0l-1,1c-0.3,0.3-0.3,0.7,0,1C30.2,10,30.7,10,31,9.7z"/>
	<path class="st2" d="M29.9,13.4l1,1c0.3,0.3,0.7,0.3,1,0c0.3-0.3,0.3-0.7,0-1l-1-1c-0.3-0.3-0.7-0.3-1,0
		C29.7,12.6,29.7,13.1,29.9,13.4z"/>
	<path class="st2" d="M30.4,23.8c-0.4-1.1-1.5-1.9-2.7-1.9c-1.6,0-2.8,1.3-2.8,2.9v4.3c0,0.8-0.6,1.4-1.4,1.4H22
		c-0.8,0-1.4-0.6-1.4-1.4v-0.1c0.8-0.3,1.4-1.1,1.4-2v-3.6h0.7c0.4,0,0.7-0.3,0.7-0.7c0-0.4-0.3-0.8-0.7-0.8H22v-1.4h0.7
		c0.4,0,0.7-0.3,0.7-0.7c0-0.4-0.3-0.8-0.7-0.8H22c-0.2-1.6-0.8-3.1-1.8-4.3h2.6c0.4,0,0.7-0.3,0.7-0.7v-0.7h2.1
		c0.4,0,0.7-0.3,0.7-0.7v-0.7h2.1c0.4,0,0.7-0.3,0.7-0.7c0-0.4-0.3-0.8-0.7-0.8h-2.1V9.6c0-0.4-0.3-0.7-0.7-0.7h-2.1V8.2
		c0-0.4-0.3-0.7-0.7-0.7h-7.2c-2,0-3.6,1.6-3.6,3.6c0,1,0.4,1.9,1,2.5l3.7,3.7c0.5,0.5,0.8,1,0.9,1.7H17c-0.4,0-0.7,0.3-0.7,0.7
		c0,0.4,0.3,0.8,0.7,0.8h0.7v1.4H17c-0.4,0-0.7,0.3-0.7,0.7c0,0.4,0.3,0.8,0.7,0.8h0.7v3.6c0,0.9,0.6,1.7,1.4,2v0.1
		c0,1.6,1.3,2.9,2.9,2.9h1.4c1.6,0,2.9-1.3,2.9-2.9v-4.3c0-0.8,0.6-1.4,1.4-1.5c0.6,0,1.2,0.4,1.4,1c0.1,0.3,0.4,0.5,0.7,0.5l0,0
		C30.2,24.7,30.6,24.2,30.4,23.8z M24.8,10.3v1.4h-1.4v-1.4H24.8z M15.5,8.9H22c0,0.5,0,3.8,0,4.3h-6.4c-1.2,0-2.1-1-2.1-2.1
		S14.4,8.9,15.5,8.9z M16.1,14.6h2l0.6,0.6c1,1,1.6,2.3,1.8,3.7h-1.4c-0.2-1-0.6-2-1.3-2.7L16.1,14.6z M19.1,20.4h1.4v1.4h-1.4V20.4
		z M20.6,23.3v3.6c0,0.4-0.3,0.7-0.7,0.7c-0.4,0-0.7-0.3-0.7-0.7v-3.6H20.6z"/>
</g>
<text transform="matrix(1 0 0 1 105.75 20.75)" style="font-family:'MyriadPro-Regular'; font-size:12px;"></text>
</svg>
