<?xml version="1.0" encoding="utf-8"?>
<!-- Generator: Adobe Illustrator 21.0.0, SVG Export Plug-In . SVG Version: 6.00 Build 0)  -->
<svg version="1.1" id="Layer_1" xmlns="http://www.w3.org/2000/svg" xmlns:xlink="http://www.w3.org/1999/xlink" x="0px" y="0px"
	 viewBox="0 0 25.2 25.2" style="enable-background:new 0 0 25.2 25.2;" xml:space="preserve">
<g>
	<path d="M23.3,4c0-0.4-0.3-0.7-0.7-0.7h-1.4c-0.4,0-0.7,0.3-0.7,0.7s0.3,0.7,0.7,0.7h1.4C23,4.7,23.3,4.4,23.3,4z"/>
	<path d="M20.9,2.6l1-1c0.3-0.3,0.3-0.7,0-1s-0.7-0.3-1,0l-1,1c-0.3,0.3-0.3,0.7,0,1C20.1,2.9,20.6,2.9,20.9,2.6z"/>
	<path d="M19.8,6.3l1,1c0.3,0.3,0.7,0.3,1,0s0.3-0.7,0-1l-1-1c-0.3-0.3-0.7-0.3-1,0C19.6,5.5,19.6,6,19.8,6.3z"/>
	<path d="M20.3,16.7c-0.4-1.1-1.5-1.9-2.7-1.9c-1.6,0-2.8,1.3-2.8,2.9V22c0,0.8-0.6,1.4-1.4,1.4h-1.5c-0.8,0-1.4-0.6-1.4-1.4v-0.1
		c0.8-0.3,1.4-1.1,1.4-2v-3.6h0.7c0.4,0,0.7-0.3,0.7-0.7c0-0.4-0.3-0.8-0.7-0.8h-0.7v-1.4h0.7c0.4,0,0.7-0.3,0.7-0.7
		c0-0.4-0.3-0.8-0.7-0.8h-0.7c-0.2-1.6-0.8-3.1-1.8-4.3h2.6c0.4,0,0.7-0.3,0.7-0.7V6.2h2.1c0.4,0,0.7-0.3,0.7-0.7V4.8h2.1
		c0.4,0,0.7-0.3,0.7-0.7s-0.3-0.8-0.7-0.8h-2.1V2.5c0-0.4-0.3-0.7-0.7-0.7h-2.1V1.1c0-0.4-0.3-0.7-0.7-0.7H5.5C3.5,0.4,1.9,2,1.9,4
		c0,1,0.4,1.9,1,2.5l3.7,3.7c0.5,0.5,0.8,1,0.9,1.7H6.9c-0.4,0-0.7,0.3-0.7,0.7c0,0.4,0.3,0.8,0.7,0.8h0.7v1.4H6.9
		c-0.4,0-0.7,0.3-0.7,0.7c0,0.4,0.3,0.8,0.7,0.8h0.7v3.6c0,0.9,0.6,1.7,1.4,2V22c0,1.6,1.3,2.9,2.9,2.9h1.4c1.6,0,2.9-1.3,2.9-2.9
		v-4.3c0-0.8,0.6-1.4,1.4-1.5c0.6,0,1.2,0.4,1.4,1c0.1,0.3,0.4,0.5,0.7,0.5l0,0C20.1,17.6,20.5,17.1,20.3,16.7z M14.7,3.2v1.4h-1.4
		V3.2H14.7z M5.4,1.8h6.5c0,0.5,0,3.8,0,4.3H5.5c-1.2,0-2.1-1-2.1-2.1S4.3,1.8,5.4,1.8z M6,7.5h2l0.6,0.6c1,1,1.6,2.3,1.8,3.7H9
		c-0.2-1-0.6-2-1.3-2.7L6,7.5z M9,13.3h1.4v1.4H9V13.3z M10.5,16.2v3.6c0,0.4-0.3,0.7-0.7,0.7c-0.4,0-0.7-0.3-0.7-0.7v-3.6H10.5z"/>
</g>
</svg>
