<?xml version="1.0" encoding="utf-8"?>
<!-- Generator: Adobe Illustrator 21.0.0, SVG Export Plug-In . SVG Version: 6.00 Build 0)  -->
<svg version="1.1" id="Layer_1" xmlns="http://www.w3.org/2000/svg" xmlns:xlink="http://www.w3.org/1999/xlink" x="0px" y="0px"
	 viewBox="0 0 25.2 25.2" style="enable-background:new 0 0 25.2 25.2;" xml:space="preserve">
<g>
	<path d="M19,1.7c1.9,1.1,3.4,2.6,4.5,4.5c1.2,2,1.7,4.1,1.7,6.4S24.6,17,23.5,19c-1.1,1.9-2.6,3.4-4.5,4.5c-2,1.2-4.1,1.7-6.4,1.7
		s-4.4-0.6-6.4-1.7c-1.9-1.1-3.4-2.6-4.5-4.5C0.5,17,0,14.9,0,12.6s0.6-4.4,1.7-6.4c1.1-1.9,2.6-3.4,4.5-4.5c2-1.2,4.1-1.7,6.4-1.7
		S17,0.5,19,1.7z M7.2,3.3c-1.6,1-2.9,2.2-3.8,3.8c-1,1.7-1.5,3.5-1.5,5.4s0.5,3.8,1.5,5.4c1,1.6,2.2,2.9,3.8,3.8
		c1.7,1,3.5,1.5,5.4,1.5s3.8-0.5,5.4-1.5c1.6-1,2.9-2.2,3.8-3.8c1-1.7,1.5-3.5,1.5-5.4s-0.5-3.8-1.5-5.4S19.6,4.2,18,3.3
		c-1.7-1-3.5-1.5-5.4-1.5C10.7,1.9,8.8,2.4,7.2,3.3z M11.4,10.5c-0.4,0.2-0.7,0.6-0.9,0.9c-0.2,0.4-0.3,0.8-0.3,1.2H3.9
		c0-1.6,0.4-3,1.2-4.4C5.9,6.9,7,5.8,8.3,5L11.4,10.5z M6.1,10.7h2.5l0.3-0.5L7.6,7.9C6.9,8.8,6.4,9.7,6.1,10.7z M12.6,15
		c0.4,0,0.9-0.1,1.3-0.3l3.1,5.5c-1.3,0.8-2.7,1.2-4.4,1.2S9.5,21,8.2,20.2l3.1-5.5C11.7,14.9,12.2,15,12.6,15z M13.7,11.5
		c0.3,0.3,0.4,0.7,0.4,1.1s-0.1,0.8-0.4,1.1c-0.3,0.3-0.7,0.4-1.1,0.4s-0.8-0.1-1.1-0.4c-0.3-0.3-0.4-0.7-0.4-1.1s0.1-0.8,0.4-1.1
		c0.3-0.3,0.7-0.4,1.1-0.4S13.4,11.2,13.7,11.5z M11,19.2c0.6,0.1,1.1,0.2,1.6,0.2c0.4,0,0.9-0.1,1.6-0.2L12.9,17h-0.6L11,19.2z
		 M20.2,8.2c0.8,1.3,1.2,2.8,1.2,4.4h-6.2c0-0.5-0.1-0.9-0.3-1.3s-0.5-0.6-0.9-0.9l3.1-5.5C18.3,5.8,19.4,6.9,20.2,8.2z M16.3,10.2
		c0,0,0.1,0.2,0.2,0.3l0.1,0.2h2.5c-0.3-1.1-0.9-2-1.6-2.7L16.3,10.2z"/>
</g>
</svg>
