<?xml version="1.0" encoding="utf-8"?>
<!-- Generator: Adobe Illustrator 21.0.0, SVG Export Plug-In . SVG Version: 6.00 Build 0)  -->
<svg version="1.1" id="Layer_1" xmlns="http://www.w3.org/2000/svg" xmlns:xlink="http://www.w3.org/1999/xlink" x="0px" y="0px"
	 viewBox="0 0 54 50" style="enable-background:new 0 0 54 50;" xml:space="preserve">
<style type="text/css">
	.st0{opacity:0.73;fill:url(#SVGID_1_);enable-background:new    ;}
	.st1{fill:#00C853;}
	.st2{fill:#FFFFFF;}
</style>
<radialGradient id="SVGID_1_" cx="39.4948" cy="311.3835" r="11.022" fx="31.5279" fy="311.1984" gradientTransform="matrix(1.1954 -0.1715 9.336998e-02 0.6508 -44.4303 -153.686)" gradientUnits="userSpaceOnUse">
	<stop  offset="9.999999e-08" style="stop-color:#4D4D4D"/>
	<stop  offset="1" style="stop-color:#FFFFFF;stop-opacity:0"/>
</radialGradient>
<path class="st0" d="M49.7,39.6c0.6,4-6.9,8.4-16.8,9.8C23,50.8,14.6,48.7,14,44.7s6.9-8.4,16.8-9.8S49.1,35.6,49.7,39.6z"/>
<path class="st1" d="M22.8,0.1h-0.2C12.4,0.1,4.2,8.4,4.2,18.6v0.2c0,9,6.4,16.5,14.9,18.1l3.7,8l3.7-8c8.5-1.7,14.9-9.1,14.9-18.1
	v-0.2C41.3,8.4,33,0.1,22.8,0.1z"/>
<path class="st1" d="M22.7,35.3L22.7,35.3c-9.2,0-16.6-7.4-16.6-16.6l0,0c0-9.2,7.4-16.6,16.6-16.6l0,0c9.2,0,16.6,7.4,16.6,16.6
	l0,0C39.3,27.9,31.9,35.3,22.7,35.3z"/>
<g>
	<path class="st2" d="M29.1,7.8c1.9,1.1,3.4,2.6,4.5,4.5c1.2,2,1.7,4.1,1.7,6.4c0,2.3-0.6,4.4-1.7,6.4c-1.1,1.9-2.6,3.4-4.5,4.5
		c-2,1.2-4.1,1.7-6.4,1.7s-4.4-0.6-6.4-1.7c-1.9-1.1-3.4-2.6-4.5-4.5c-1.2-2-1.7-4.1-1.7-6.4c0-2.3,0.6-4.4,1.7-6.4
		c1.1-1.9,2.6-3.4,4.5-4.5c2-1.2,4.1-1.7,6.4-1.7S27.1,6.6,29.1,7.8z M17.3,9.4c-1.6,1-2.9,2.2-3.8,3.8c-1,1.7-1.5,3.5-1.5,5.4
		s0.5,3.8,1.5,5.4c1,1.6,2.2,2.9,3.8,3.8c1.7,1,3.5,1.5,5.4,1.5c1.9,0,3.8-0.5,5.4-1.5c1.6-1,2.9-2.2,3.8-3.8c1-1.7,1.5-3.5,1.5-5.4
		s-0.5-3.8-1.5-5.4c-1-1.6-2.2-2.9-3.8-3.8c-1.7-1-3.5-1.5-5.4-1.5C20.8,8,18.9,8.5,17.3,9.4z M21.5,16.6c-0.4,0.2-0.7,0.6-0.9,0.9
		c-0.2,0.4-0.3,0.8-0.3,1.2h-6.3c0-1.6,0.4-3,1.2-4.4c0.8-1.3,1.9-2.4,3.2-3.2L21.5,16.6z M16.2,16.8h2.5l0.3-0.5L17.7,14
		C17,14.9,16.5,15.8,16.2,16.8z M22.7,21.1c0.4,0,0.9-0.1,1.3-0.3l3.1,5.5c-1.3,0.8-2.7,1.2-4.4,1.2s-3.1-0.4-4.4-1.2l3.1-5.5
		C21.8,21,22.3,21.1,22.7,21.1z M23.8,17.6c0.3,0.3,0.4,0.7,0.4,1.1c0,0.4-0.1,0.8-0.4,1.1c-0.3,0.3-0.7,0.4-1.1,0.4
		s-0.8-0.1-1.1-0.4c-0.3-0.3-0.4-0.7-0.4-1.1c0-0.4,0.1-0.8,0.4-1.1c0.3-0.3,0.7-0.4,1.1-0.4S23.5,17.3,23.8,17.6z M21.1,25.3
		c0.6,0.1,1.1,0.2,1.6,0.2c0.4,0,0.9-0.1,1.6-0.2L23,23.1h-0.6L21.1,25.3z M30.3,14.3c0.8,1.3,1.2,2.8,1.2,4.4h-6.2
		c0-0.5-0.1-0.9-0.3-1.3s-0.5-0.6-0.9-0.9l3.1-5.5C28.4,11.9,29.5,13,30.3,14.3z M26.4,16.3c0,0,0.1,0.2,0.2,0.3l0.1,0.2h2.5
		c-0.3-1.1-0.9-2-1.6-2.7L26.4,16.3z"/>
</g>
</svg>
