<?xml version="1.0" encoding="utf-8"?>
<!-- Generator: Adobe Illustrator 21.0.0, SVG Export Plug-In . SVG Version: 6.00 Build 0)  -->
<svg version="1.1" id="Layer_1" xmlns="http://www.w3.org/2000/svg" xmlns:xlink="http://www.w3.org/1999/xlink" x="0px" y="0px"
	 viewBox="0 0 54 50" style="enable-background:new 0 0 54 50;" xml:space="preserve">
<style type="text/css">
	.st0{opacity:0.73;fill:url(#SVGID_1_);enable-background:new    ;}
	.st1{fill:#2A206A;}
	.st2{fill:#FFFFFF;}
</style>
<radialGradient id="SVGID_1_" cx="46.29" cy="-194.4976" r="11.0193" fx="38.3251" fy="-194.6827" gradientTransform="matrix(1.1954 -0.1715 -9.336998e-02 -0.6508 -41.633 -76.4522)" gradientUnits="userSpaceOnUse">
	<stop  offset="9.999999e-08" style="stop-color:#4D4D4D"/>
	<stop  offset="1" style="stop-color:#FFFFFF;stop-opacity:0"/>
</radialGradient>
<path class="st0" d="M49.7,39.6c0.6,4-6.9,8.4-16.8,9.8c-9.9,1.4-18.3-0.7-18.9-4.7c-0.6-4,6.9-8.4,16.8-9.8S49.1,35.6,49.7,39.6z"
	/>
<path class="st1" d="M22.8,0.1h-0.2C12.4,0.1,4.2,8.4,4.2,18.6v0.2c0,9,6.4,16.5,14.9,18.1l3.7,8l3.7-8c8.5-1.7,14.9-9.1,14.9-18.1
	v-0.2C41.3,8.4,33,0.1,22.8,0.1z"/>
<path class="st1" d="M22.7,35.3L22.7,35.3c-9.2,0-16.6-7.4-16.6-16.6v0c0-9.2,7.4-16.6,16.6-16.6h0c9.2,0,16.6,7.4,16.6,16.6v0
	C39.3,27.9,31.9,35.3,22.7,35.3z"/>
<g>
	<path class="st2" d="M24.4,11.8v2.3h3.1l0.2,0.2l3.5,3.5l0.2,0.2v6h-1.8c-0.1,0.5-0.4,0.9-0.8,1.2c-0.4,0.3-0.9,0.5-1.4,0.5
		s-1-0.2-1.4-0.5c-0.4-0.3-0.7-0.7-0.8-1.2h-4.8c-0.1,0.5-0.4,0.9-0.8,1.2c-0.4,0.3-0.9,0.5-1.4,0.5c-0.5,0-1-0.2-1.4-0.5
		c-0.4-0.3-0.7-0.7-0.8-1.2h-1.8V11.8H24.4z M15.2,22.7h0.7c0.1-0.5,0.4-0.9,0.8-1.2s0.9-0.5,1.4-0.5c0.5,0,1,0.2,1.4,0.5
		s0.7,0.7,0.8,1.2h3v-9.8h-8.1V22.7z M17.3,22.5c-0.2,0.2-0.3,0.5-0.3,0.8c0,0.3,0.1,0.6,0.3,0.8c0.2,0.2,0.5,0.3,0.8,0.3
		c0.3,0,0.6-0.1,0.8-0.3c0.2-0.2,0.3-0.5,0.3-0.8c0-0.3-0.1-0.6-0.3-0.8c-0.2-0.2-0.5-0.3-0.8-0.3C17.8,22.2,17.5,22.3,17.3,22.5z
		 M24.4,22.7h0.7c0.1-0.5,0.4-0.9,0.8-1.2c0.4-0.3,0.9-0.5,1.4-0.5s1,0.2,1.4,0.5c0.4,0.3,0.7,0.7,0.8,1.2h0.7v-4.4l-3.1-3.1h-2.6
		V22.7z M26.5,22.5c-0.2,0.2-0.3,0.5-0.3,0.8c0,0.3,0.1,0.6,0.3,0.8c0.2,0.2,0.5,0.3,0.8,0.3c0.3,0,0.6-0.1,0.8-0.3
		c0.2-0.2,0.3-0.5,0.3-0.8c0-0.3-0.1-0.6-0.3-0.8c-0.2-0.2-0.5-0.3-0.8-0.3C27,22.2,26.7,22.3,26.5,22.5z"/>
</g>
</svg>
