<?xml version="1.0" encoding="utf-8"?>
<!-- Generator: Adobe Illustrator 21.0.0, SVG Export Plug-In . SVG Version: 6.00 Build 0)  -->
<svg version="1.1" id="Layer_1" xmlns="http://www.w3.org/2000/svg" xmlns:xlink="http://www.w3.org/1999/xlink" x="0px" y="0px"
	 viewBox="0 0 54 50" style="enable-background:new 0 0 54 50;" xml:space="preserve">
<style type="text/css">
	.st0{opacity:0.73;fill:url(#SVGID_1_);enable-background:new    ;}
	.st1{fill:#D6D6D6;}
	.st2{fill:#8E8E8E;}
</style>
<radialGradient id="SVGID_1_" cx="46.29" cy="-194.4976" r="11.0193" fx="38.3251" fy="-194.6827" gradientTransform="matrix(1.1954 -0.1715 -9.336998e-02 -0.6508 -41.633 -76.4522)" gradientUnits="userSpaceOnUse">
	<stop  offset="9.999999e-08" style="stop-color:#4D4D4D"/>
	<stop  offset="1" style="stop-color:#FFFFFF;stop-opacity:0"/>
</radialGradient>
<path class="st0" d="M49.7,39.6c0.6,4-6.9,8.4-16.8,9.8c-9.9,1.4-18.3-0.7-18.9-4.7c-0.6-4,6.9-8.4,16.8-9.8S49.1,35.6,49.7,39.6z"
	/>
<path class="st1" d="M22.8,0.1h-0.2C12.4,0.1,4.2,8.4,4.2,18.6v0.2c0,9,6.4,16.5,14.9,18.1l3.7,8l3.7-8c8.5-1.7,14.9-9.1,14.9-18.1
	v-0.2C41.3,8.4,33,0.1,22.8,0.1z"/>
<path class="st1" d="M22.7,35.3L22.7,35.3c-9.2,0-16.6-7.4-16.6-16.6v0c0-9.2,7.4-16.6,16.6-16.6h0c9.2,0,16.6,7.4,16.6,16.6v0
	C39.3,27.9,31.9,35.3,22.7,35.3z"/>
<g>
	<path class="st2" d="M22,19.4v7.9h-8.6v-7.9H22z M14.8,25.9h5.7v-5h-1.4v2.9l-1.4-1.4l-1.4,1.4v-2.9h-1.4V25.9z M27,10.1V18h-8.6
		v-7.9H27z M19.8,16.5h5.7v-5h-1.4v2.9l-1.4-1.4l-1.4,1.4v-2.9h-1.4V16.5z M32,19.4v7.9h-8.6v-7.9H32z M24.9,25.9h5.7v-5h-1.4v2.9
		l-1.4-1.4l-1.4,1.4v-2.9h-1.4V25.9z"/>
</g>
</svg>
