<?xml version="1.0" encoding="utf-8"?>
<!-- Generator: Adobe Illustrator 21.0.0, SVG Export Plug-In . SVG Version: 6.00 Build 0)  -->
<svg version="1.1" id="Layer_1" xmlns="http://www.w3.org/2000/svg" xmlns:xlink="http://www.w3.org/1999/xlink" x="0px" y="0px"
	 viewBox="0 0 66.7 66.7" style="enable-background:new 0 0 66.7 66.7;" xml:space="preserve">
<style type="text/css">
	.st0{fill:url(#SVGID_1_);}
	.st1{fill:#FFFFFF;}
</style>
<g>
	<g>
		<linearGradient id="SVGID_1_" gradientUnits="userSpaceOnUse" x1="5.9414" y1="16.283" x2="60.752" y2="50.4104">
			<stop  offset="0" style="stop-color:#FFFFFF"/>
			<stop  offset="1" style="stop-color:#FFFFFF;stop-opacity:0"/>
		</linearGradient>
		<path class="st0" d="M33.3,65.6c-17.8,0-32.3-14.5-32.3-32.3S15.5,1.1,33.3,1.1s32.3,14.5,32.3,32.3S51.2,65.6,33.3,65.6z
			 M33.3,1.3c-17.7,0-32,14.4-32,32s14.4,32,32,32s32-14.4,32-32S51,1.3,33.3,1.3z"/>
	</g>
	<g>
		<path class="st1" d="M33.3,1.1c-7.6,0-14.6,2.6-20.1,7.1c0.1,0,0.2,0.1,0.2,0.1c5.5-4.3,12.4-6.9,19.9-6.9c17.7,0,32,14.4,32,32
			c0,2.7-0.3,5.3-1,7.8c0.1,0,0.2,0,0.2,0c0.6-2.5,1-5.1,1-7.8C65.6,15.5,51.2,1.1,33.3,1.1z"/>
	</g>
</g>
</svg>
