<?xml version="1.0" standalone="no"?>
<!DOCTYPE svg PUBLIC "-//W3C//DTD SVG 20010904//EN"
 "http://www.w3.org/TR/2001/REC-SVG-20010904/DTD/svg10.dtd">
<svg version="1.0" xmlns="http://www.w3.org/2000/svg"
 width="1962.000000pt" height="1366.000000pt" viewBox="0 0 1962.000000 1366.000000"
 preserveAspectRatio="xMidYMid meet">
<metadata>
Created by potrace 1.16, written by Peter Selinger 2001-2019
</metadata>
<g transform="translate(0.000000,1366.000000) scale(0.100000,-0.100000)"
fill="#000000" stroke="none">
<path d="M14970 12615 c-1582 -134 -3772 -838 -5915 -1903 l-350 -174 -75 13
c-86 14 -1390 26 -1390 12 -1 -4 -38 -217 -83 -472 l-83 -464 -89 -55 c-50
-31 -156 -97 -237 -149 l-147 -93 -62 30 c-34 16 -83 34 -110 41 -27 7 -49 15
-49 18 0 3 33 23 73 43 224 116 371 329 393 570 18 208 -70 360 -259 448 -176
81 -279 90 -1067 90 l-598 0 -6 -32 c-3 -18 -102 -584 -221 -1258 -118 -674
-217 -1235 -220 -1247 -5 -22 -5 -23 155 -25 l160 -3 -82 -70 c-159 -134 -384
-341 -557 -510 -689 -676 -1100 -1285 -1202 -1779 -30 -146 -24 -356 14 -471
100 -302 380 -509 827 -610 467 -106 1127 -94 1907 35 3257 536 7932 2902
10187 5156 667 665 1060 1259 1152 1739 23 121 23 307 -1 400 -105 417 -512
659 -1215 724 -154 15 -658 12 -850 -4z m115 -793 c368 -58 589 -152 742 -316
168 -179 193 -429 73 -732 -491 -1237 -3144 -3142 -6180 -4436 -1548 -660
-2955 -1068 -4085 -1184 -213 -22 -680 -25 -835 -6 -559 71 -842 267 -891 618
-67 487 472 1289 1437 2135 l120 106 185 6 c101 4 216 11 254 17 274 40 493
145 660 315 163 165 245 359 245 579 l0 83 85 57 c64 42 85 52 85 39 0 -14
-168 -979 -186 -1065 l-6 -28 336 0 c185 0 336 3 336 7 0 5 18 107 39 228 22
121 54 304 72 408 l33 187 243 0 c263 0 395 10 513 39 285 71 540 245 690 474
113 171 174 373 175 582 0 138 -22 225 -81 317 l-33 53 77 36 c260 123 253
120 247 96 -3 -12 -97 -548 -210 -1192 -113 -643 -208 -1185 -211 -1202 l-6
-33 336 0 c201 0 336 4 336 9 0 5 32 191 70 412 39 221 70 403 70 404 0 2 138
5 308 8 265 4 321 8 407 27 220 47 427 157 590 311 214 203 340 533 315 822
l-5 67 347 0 348 0 -5 -22 c-9 -39 -355 -2009 -355 -2024 0 -12 55 -14 333
-14 l332 0 180 1028 181 1027 396 3 c367 2 397 4 402 20 3 9 21 112 41 227 20
116 39 220 42 233 l5 22 -1130 0 -1131 0 -6 -32 c-3 -18 -16 -91 -28 -162
l-23 -130 -23 37 c-53 86 -181 174 -324 223 -157 53 -201 57 -782 63 l-540 6
240 102 c1445 612 2834 1009 3980 1138 258 29 358 33 700 30 283 -2 362 -6
470 -23z m-9134 -1742 c127 -24 182 -81 182 -189 0 -120 -54 -218 -149 -268
-83 -43 -134 -51 -369 -59 l-207 -7 6 29 c11 56 86 483 86 494 0 13 378 14
451 0z m4548 -15 c205 -49 278 -176 220 -385 -49 -180 -162 -286 -347 -326
-67 -14 -462 -32 -462 -21 0 7 118 680 126 720 l6 27 196 0 c140 0 215 -5 261
-15z m-1997 -163 c52 -116 -8 -329 -124 -438 -100 -93 -206 -122 -492 -131
-192 -6 -198 -6 -193 13 3 10 14 67 23 127 l18 107 176 99 c96 55 258 144 360
199 207 112 192 111 232 24z m-2581 -808 c66 -15 158 -65 166 -90 2 -6 -85
-75 -194 -152 -109 -77 -265 -190 -348 -251 l-149 -111 -88 0 c-86 0 -88 0
-83 23 2 12 25 139 50 282 25 143 48 272 51 288 l6 27 259 0 c201 0 276 -4
330 -16z"/>
<path d="M5343 3181 c-117 -30 -150 -146 -140 -481 6 -194 14 -235 57 -284 40
-45 95 -59 213 -55 90 4 98 6 126 33 40 39 51 95 51 266 l0 140 -115 0 -115 0
0 -60 0 -60 66 0 67 0 -6 -67 c-8 -90 -32 -113 -116 -113 -106 0 -121 31 -120
260 0 254 13 283 122 284 77 1 101 -15 111 -74 l6 -40 50 0 50 0 0 58 c-1 87
-27 151 -71 174 -42 21 -183 33 -236 19z"/>
<path d="M16708 3181 c-111 -23 -136 -90 -145 -386 -8 -257 12 -360 80 -409
23 -17 47 -22 122 -24 124 -5 176 16 205 82 42 93 51 502 15 624 -17 57 -48
87 -104 101 -56 15 -132 20 -173 12z m156 -157 c27 -26 31 -62 31 -254 0 -246
-11 -270 -124 -270 -90 0 -101 28 -101 265 0 245 13 275 120 275 40 0 64 -5
74 -16z"/>
<path d="M17566 3179 c-62 -15 -94 -44 -111 -102 -25 -80 -40 -360 -27 -489
20 -192 61 -232 233 -226 110 3 141 18 171 79 23 46 38 184 38 359 0 161 -12
260 -38 305 -34 59 -171 98 -266 74z m154 -149 c31 -16 40 -75 40 -250 -1
-253 -14 -283 -123 -278 -91 5 -98 18 -104 204 -6 182 7 291 38 317 24 19 118
24 149 7z"/>
<path d="M18047 3179 c-57 -13 -83 -35 -108 -92 -23 -50 -24 -60 -24 -317 0
-263 0 -265 25 -315 37 -74 84 -95 213 -95 111 0 148 13 172 60 21 41 35 146
35 273 l0 107 -120 0 -120 0 0 -60 0 -60 65 0 65 0 0 -49 c0 -59 -16 -108 -40
-121 -10 -6 -45 -10 -78 -10 -90 0 -102 14 -114 131 -10 110 -1 337 16 370 16
32 70 50 131 43 63 -7 72 -15 81 -70 l6 -44 55 0 55 0 -7 63 c-10 89 -25 136
-52 157 -45 35 -170 49 -256 29z"/>
<path d="M1100 2769 l0 -410 169 3 c152 3 171 5 191 23 38 35 53 76 58 166 7
121 -3 176 -38 211 -16 15 -24 28 -19 28 4 0 16 15 26 33 14 25 18 56 18 147
0 194 -19 210 -255 210 l-150 0 0 -411z m284 255 c21 -20 22 -132 2 -159 -12
-16 -29 -20 -95 -23 l-81 -4 0 101 0 101 79 0 c59 0 84 -4 95 -16z m12 -328
c9 -13 14 -45 14 -88 0 -96 -14 -108 -120 -108 l-80 0 0 111 0 111 86 -3 c71
-3 88 -7 100 -23z"/>
<path d="M1700 3177 c0 -5 -157 -760 -165 -795 -5 -22 -4 -23 52 -20 l58 3 14
78 15 78 105 -3 105 -3 16 -75 16 -75 56 -3 56 -3 -35 163 c-19 90 -57 273
-86 408 l-52 245 -77 3 c-43 2 -78 1 -78 -1z m119 -338 c18 -85 34 -165 38
-177 5 -21 3 -22 -77 -22 -73 0 -82 2 -78 18 3 9 20 92 39 184 18 92 37 164
40 160 3 -4 20 -77 38 -163z"/>
<path d="M2060 2769 l0 -411 168 4 c182 3 198 8 232 63 35 57 45 140 45 365 0
238 -10 292 -63 343 -43 41 -74 47 -233 47 l-149 0 0 -411z m299 247 c11 -10
25 -35 31 -55 13 -48 13 -307 -1 -370 -15 -72 -35 -85 -135 -90 l-84 -3 0 272
0 272 84 -3 c65 -3 89 -8 105 -23z"/>
<path d="M2675 3158 c-8 -33 -165 -790 -165 -794 0 -2 24 -4 54 -4 61 0 57 -5
77 98 l12 62 103 0 103 0 10 -37 c6 -21 13 -57 17 -80 l7 -43 53 0 c45 0 54 3
54 18 -1 9 -38 193 -84 407 l-83 390 -76 3 c-73 3 -77 2 -82 -20z m120 -314
c20 -93 38 -177 41 -186 5 -16 -3 -18 -76 -18 -80 0 -82 1 -78 23 51 252 73
355 75 353 2 -1 19 -79 38 -172z"/>
<path d="M3040 2770 l0 -410 50 0 50 0 0 323 1 322 102 -320 102 -320 88 -3
87 -3 0 411 0 410 -55 0 -55 0 -1 -312 -1 -313 -58 180 c-32 99 -77 240 -100
313 l-42 132 -84 0 -84 0 0 -410z"/>
<path d="M3810 2771 l0 -411 50 0 50 0 0 129 0 128 105 5 c121 5 146 17 180
84 17 34 20 59 20 189 0 133 -3 155 -22 197 -33 72 -60 82 -235 86 l-148 4 0
-411z m271 250 c22 -18 24 -26 24 -121 0 -126 -4 -130 -117 -130 l-78 0 0 135
0 135 74 0 c58 0 79 -4 97 -19z"/>
<path d="M4260 2770 l0 -410 175 0 175 0 0 70 0 70 -125 0 -125 0 0 110 0 110
120 0 120 0 0 60 0 60 -120 0 -120 0 0 100 0 100 125 0 125 0 0 70 0 70 -175
0 -175 0 0 -410z"/>
<path d="M4670 2770 l0 -410 50 0 50 0 2 319 3 319 100 -316 100 -317 88 -3
87 -3 0 411 0 410 -56 0 -56 0 3 -326 4 -325 -57 178 c-31 98 -77 244 -103
326 l-47 147 -84 0 -84 0 0 -410z"/>
<path d="M5710 2770 l0 -410 50 0 50 0 0 175 c0 235 5 235 131 0 l93 -176 126
3 125 3 14 78 15 78 105 -3 106 -3 14 -77 14 -78 54 0 c44 0 53 3 53 18 0 9
-38 193 -83 407 l-84 390 -76 3 c-73 3 -77 2 -82 -20 -3 -13 -39 -187 -80
-388 -42 -201 -78 -373 -81 -384 -4 -13 -39 43 -119 190 -63 116 -110 213
-106 219 4 5 52 94 105 198 l97 187 -68 0 -68 0 -83 -165 c-65 -131 -86 -165
-102 -165 -19 0 -20 7 -20 165 l0 165 -50 0 -50 0 0 -410z m749 60 c18 -85 35
-163 37 -172 5 -16 -3 -18 -76 -18 -80 0 -82 1 -77 23 3 12 20 96 38 185 18
90 35 158 39 150 4 -7 22 -83 39 -168z"/>
<path d="M6910 2882 c0 -289 -6 -357 -32 -374 -22 -13 -75 -9 -88 8 -8 8 -15
51 -18 95 l-5 79 -50 0 -50 0 5 -112 c7 -172 35 -210 162 -216 86 -5 126 11
153 61 16 29 18 70 21 395 l3 362 -51 0 -50 0 0 -298z"/>
<path d="M7080 2770 l0 -410 55 0 55 0 0 410 0 410 -55 0 -55 0 0 -410z"/>
<path d="M7387 3157 c-4 -12 -40 -187 -82 -387 -42 -200 -78 -375 -82 -388 -5
-22 -4 -23 53 -20 l59 3 14 78 15 78 105 -3 106 -3 14 -77 14 -78 54 0 c48 0
53 2 52 23 0 12 -37 195 -83 407 l-82 385 -76 3 c-72 3 -76 2 -81 -21z m122
-327 c18 -85 35 -163 37 -172 5 -16 -3 -18 -76 -18 -80 0 -82 1 -77 23 3 12
20 95 38 185 18 89 36 157 40 150 4 -7 21 -83 38 -168z"/>
<path d="M7750 2770 l0 -410 50 0 50 0 2 320 3 320 100 -318 101 -317 87 -3
87 -3 0 411 0 410 -57 0 -56 0 5 -327 5 -328 -52 165 c-30 91 -77 238 -105
328 l-51 162 -85 0 -84 0 0 -410z"/>
<path d="M8520 2769 l0 -411 168 4 c188 3 206 9 237 75 32 67 47 213 42 403
-5 184 -12 221 -55 279 -39 53 -72 61 -242 61 l-150 0 0 -411z m301 245 c12
-12 25 -41 30 -65 12 -62 11 -286 -1 -350 -16 -81 -33 -93 -140 -97 l-90 -4 0
272 0 272 90 -4 c75 -2 93 -6 111 -24z"/>
<path d="M9136 3163 c-5 -18 -166 -790 -166 -799 0 -2 24 -4 54 -4 61 0 57 -5
77 98 l12 62 103 0 c116 0 105 9 125 -97 l12 -63 53 0 c36 0 54 4 54 12 0 13
-157 760 -166 791 -4 14 -17 17 -79 17 -61 0 -75 -3 -79 -17z m128 -361 l34
-162 -79 0 c-43 0 -79 3 -79 8 0 4 17 89 37 190 30 145 39 177 45 155 4 -16
23 -102 42 -191z"/>
<path d="M9500 2770 l0 -410 50 0 50 0 2 317 3 317 100 -317 100 -317 87 0 88
0 0 410 0 410 -55 0 -55 0 0 -317 -1 -318 -101 318 -102 317 -83 0 -83 0 0
-410z"/>
<path d="M10270 2771 l0 -411 50 0 50 0 0 129 0 128 104 5 c123 5 148 17 179
86 19 41 22 64 22 192 -1 126 -3 151 -22 192 -33 72 -59 82 -235 86 l-148 4 0
-411z m270 251 c38 -31 41 -199 4 -237 -11 -11 -37 -15 -95 -15 l-79 0 0 135
0 135 74 0 c56 0 79 -4 96 -18z"/>
<path d="M10720 2770 l0 -410 175 0 175 0 0 70 0 70 -125 0 -125 0 0 110 0
110 120 0 120 0 0 60 0 60 -120 0 -120 0 0 100 0 100 125 0 125 0 0 70 0 70
-175 0 -175 0 0 -410z"/>
<path d="M11130 2770 l0 -410 50 0 50 0 0 323 1 322 102 -320 103 -320 87 -3
87 -3 0 411 0 410 -55 0 -55 0 -1 -312 -1 -313 -55 170 c-30 94 -75 234 -100
313 l-45 142 -84 0 -84 0 0 -410z"/>
<path d="M11670 2770 l0 -410 175 0 175 0 0 70 0 70 -125 0 -125 0 0 110 0
110 120 0 120 0 0 60 0 60 -120 0 -120 0 0 100 0 100 125 0 125 0 0 70 0 70
-175 0 -175 0 0 -410z"/>
<path d="M12080 2770 l0 -410 50 0 50 0 0 135 0 135 79 0 c119 0 125 -7 129
-154 l4 -116 49 0 49 0 0 131 c0 142 -13 192 -53 205 -20 6 -20 7 5 20 42 22
53 65 53 214 0 120 -3 140 -22 176 -33 63 -72 74 -248 74 l-145 0 0 -410z
m287 247 c15 -15 18 -35 18 -113 0 -124 -10 -134 -126 -134 l-79 0 0 136 0
136 85 -3 c64 -3 89 -8 102 -22z"/>
<path d="M12690 3172 c0 -6 -153 -747 -164 -794 -4 -16 4 -18 53 -18 l58 0 14
78 14 77 106 3 106 3 7 -43 c4 -24 11 -60 17 -80 l10 -38 55 0 c41 0 55 3 52
13 -3 6 -43 191 -89 410 l-84 397 -77 0 c-43 0 -78 -3 -78 -8z m160 -524 c0
-5 -36 -8 -80 -8 -78 0 -80 1 -75 23 3 12 19 90 36 172 16 83 33 157 36 165 4
11 81 -315 83 -352z"/>
<path d="M13050 2771 l0 -411 50 0 50 0 0 129 0 129 103 4 c56 3 114 10 128
17 15 7 37 32 50 55 23 38 24 51 24 201 0 140 -2 165 -20 200 -34 68 -67 79
-237 83 l-148 4 0 -411z m282 251 c8 -8 14 -48 16 -112 3 -89 2 -100 -17 -119
-18 -18 -33 -21 -101 -21 l-80 0 0 136 0 136 85 -3 c51 -3 89 -9 97 -17z"/>
<path d="M13606 3163 c-6 -20 -166 -788 -166 -797 0 -3 24 -6 54 -6 61 0 57
-5 77 98 l12 62 103 0 c116 0 105 9 125 -97 l12 -63 53 0 c36 0 54 4 54 12 0
13 -157 760 -166 791 -4 14 -17 17 -79 17 -61 0 -75 -3 -79 -17z m127 -360
l34 -163 -78 0 c-44 0 -79 3 -79 8 0 4 17 89 37 190 29 142 39 177 45 155 4
-15 23 -101 41 -190z"/>
<path d="M13970 2770 l0 -410 50 0 50 0 2 317 3 317 100 -317 100 -317 87 0
88 0 0 410 0 410 -55 0 -55 0 0 -317 -1 -318 -101 318 -102 317 -83 0 -83 0 0
-410z"/>
<path d="M14690 3105 l0 -75 75 0 75 0 0 -335 0 -335 55 0 55 0 0 335 0 335
75 0 75 0 0 75 0 75 -205 0 -205 0 0 -75z"/>
<path d="M15130 2770 l0 -410 175 0 175 0 0 70 0 70 -125 0 -125 0 0 110 0
110 120 0 120 0 0 60 0 60 -120 0 -120 0 0 100 0 100 125 0 125 0 0 70 0 70
-175 0 -175 0 0 -410z"/>
<path d="M15540 2770 l0 -410 55 0 55 0 0 176 c0 157 2 175 16 172 10 -2 55
-74 108 -173 l91 -170 68 -3 c37 -2 67 0 67 4 0 3 -45 88 -99 188 -55 99 -104
192 -111 206 -10 23 -2 44 89 218 56 106 101 195 101 197 0 3 -29 5 -64 5
l-64 0 -85 -162 c-49 -95 -91 -164 -101 -166 -14 -3 -16 15 -16 162 l0 166
-55 0 -55 0 0 -410z"/>
<path d="M16030 2770 l0 -410 50 0 50 0 0 323 1 322 102 -322 102 -323 88 0
87 0 0 410 0 410 -55 0 -55 0 -1 -312 -1 -313 -60 185 c-33 102 -78 242 -100
313 l-41 127 -84 0 -83 0 0 -410z"/>
<path d="M17060 2770 l0 -410 170 0 170 0 0 75 0 75 -115 0 -115 0 0 335 0
335 -55 0 -55 0 0 -410z"/>
<path d="M18410 2770 l0 -410 55 0 55 0 0 410 0 410 -55 0 -55 0 0 -410z"/>
<path d="M8823 1770 c-50 -12 -80 -36 -95 -77 -20 -58 -19 -733 2 -787 19 -49
54 -76 108 -83 l42 -6 0 71 c0 69 0 71 -27 74 -19 2 -29 10 -34 28 -9 32 -11
557 -2 600 4 24 14 36 35 44 27 10 28 13 28 78 0 73 1 72 -57 58z"/>
<path d="M10950 1710 c0 -62 2 -70 19 -70 43 0 46 -18 49 -321 3 -238 1 -293
-12 -323 -10 -25 -21 -36 -35 -36 -19 0 -21 -6 -21 -71 l0 -71 43 7 c56 9 85
29 105 73 15 32 17 82 17 392 0 321 -2 360 -18 403 -20 51 -45 69 -109 81
l-38 7 0 -71z"/>
<path d="M9160 1355 l0 -405 160 0 c99 0 169 4 184 12 83 37 104 329 28 389
-24 18 -25 22 -10 30 27 15 42 78 41 179 0 112 -17 161 -62 184 -23 13 -64 16
-186 16 l-155 0 0 -405z m282 257 c8 -8 13 -39 13 -83 0 -91 -10 -99 -117 -99
l-78 0 0 101 0 101 85 -3 c51 -3 89 -9 97 -17z m4 -326 c16 -12 19 -27 19 -90
0 -101 -9 -110 -120 -115 l-85 -3 0 111 0 111 83 0 c56 0 90 -5 103 -14z"/>
<path d="M9640 1356 l0 -406 50 0 50 0 0 130 0 130 100 0 c120 0 150 12 182
73 21 38 23 55 23 197 0 135 -3 160 -20 194 -37 74 -56 81 -231 84 l-154 3 0
-405z m276 250 c16 -12 20 -29 22 -110 4 -91 3 -96 -22 -121 -22 -22 -33 -25
-101 -25 l-75 0 0 135 0 135 78 0 c52 0 85 -5 98 -14z"/>
<path d="M10100 1355 l0 -405 55 0 55 0 0 129 0 129 111 4 c110 3 111 3 139
35 41 45 50 90 50 238 -1 166 -17 219 -75 252 -36 21 -53 23 -187 23 l-148 0
0 -405z m286 240 c17 -26 24 -160 10 -203 -10 -31 -43 -42 -122 -42 l-64 0 0
135 0 135 80 0 c73 0 81 -2 96 -25z"/>
<path d="M10520 1690 l0 -70 75 0 75 0 0 -335 0 -335 55 0 55 0 0 335 0 335
75 0 75 0 0 70 0 70 -205 0 -205 0 0 -70z"/>
</g>
</svg>
